<svg id="svg" version="1.1" xmlns="http://www.w3.org/2000/svg" xmlns:xlink="http://www.w3.org/1999/xlink" width="400" height="400" viewBox="0, 0, 400,400"><g id="svgg"><path id="path0" d="M81.600 16.383 C 79.730 16.524,77.660 16.920,77.000 17.263 C 76.340 17.607,74.990 17.996,74.000 18.128 C 73.010 18.261,71.487 18.736,70.615 19.185 C 69.744 19.633,68.828 20.000,68.579 20.000 C 67.844 20.000,62.288 23.005,59.361 24.986 C 55.178 27.817,48.530 34.164,46.481 37.283 C 46.106 37.853,45.142 39.283,44.339 40.460 C 42.664 42.912,40.679 46.359,39.766 48.400 C 39.421 49.170,38.793 50.532,38.370 51.426 C 37.946 52.321,37.599 53.311,37.597 53.626 C 37.596 53.942,37.237 54.740,36.800 55.400 C 36.363 56.060,36.000 57.050,35.994 57.600 C 35.988 58.150,35.618 59.404,35.172 60.388 C 34.726 61.371,34.264 62.991,34.147 63.988 C 34.029 64.984,33.610 66.610,33.217 67.600 C 32.822 68.592,32.382 71.107,32.236 73.200 C 32.090 75.290,31.710 78.080,31.391 79.400 C 30.516 83.030,30.535 314.997,31.412 319.800 C 31.733 321.560,32.110 324.620,32.249 326.600 C 32.388 328.580,32.826 331.010,33.221 332.000 C 33.617 332.990,34.056 334.662,34.197 335.717 C 34.339 336.771,34.798 338.391,35.218 339.317 C 35.639 340.242,35.986 341.429,35.991 341.953 C 35.996 342.477,36.341 343.467,36.757 344.153 C 37.173 344.839,37.643 346.030,37.801 346.800 C 37.960 347.570,38.316 348.470,38.594 348.800 C 38.872 349.130,39.311 350.061,39.570 350.868 C 39.829 351.675,40.302 352.552,40.620 352.817 C 40.939 353.082,41.200 353.610,41.200 353.991 C 41.200 354.372,41.650 355.169,42.200 355.762 C 42.750 356.356,43.200 357.004,43.200 357.203 C 43.200 357.998,48.875 365.566,51.064 367.690 C 53.301 369.860,56.284 372.453,57.373 373.173 C 63.146 376.995,63.971 377.507,65.200 378.036 C 65.750 378.273,66.830 378.789,67.600 379.183 C 68.370 379.577,69.630 380.030,70.400 380.189 C 71.170 380.348,72.221 380.745,72.735 381.071 C 73.249 381.397,73.741 381.592,73.828 381.505 C 73.916 381.418,74.035 319.438,74.094 243.773 C 74.195 112.042,74.231 106.124,74.925 104.400 C 75.323 103.410,75.884 101.700,76.170 100.600 C 76.457 99.500,76.985 98.060,77.343 97.400 C 77.702 96.740,77.996 96.003,77.998 95.761 C 77.999 95.520,78.360 94.907,78.800 94.400 C 79.240 93.893,79.600 93.260,79.600 92.994 C 79.600 92.198,83.660 87.185,86.800 84.104 C 88.802 82.139,93.655 78.433,95.200 77.688 C 95.750 77.423,96.470 77.040,96.800 76.838 C 104.779 71.949,105.287 71.909,161.700 71.730 C 207.709 71.584,209.600 71.549,209.600 70.850 C 209.600 70.392,209.043 69.877,208.100 69.463 C 207.275 69.101,205.880 68.360,205.000 67.817 C 204.120 67.273,202.860 66.538,202.200 66.183 C 201.540 65.828,200.100 65.020,199.000 64.387 C 197.900 63.754,196.427 62.960,195.727 62.624 C 195.027 62.287,194.340 61.827,194.200 61.600 C 194.060 61.373,193.373 60.919,192.673 60.591 C 191.973 60.263,190.680 59.553,189.800 59.014 C 188.920 58.475,187.480 57.659,186.600 57.200 C 185.720 56.741,184.280 55.925,183.400 55.386 C 182.520 54.847,181.260 54.122,180.600 53.775 C 179.940 53.429,178.680 52.708,177.800 52.174 C 176.920 51.639,175.442 50.837,174.517 50.390 C 173.591 49.943,172.723 49.400,172.589 49.183 C 172.455 48.965,171.773 48.519,171.073 48.191 C 170.373 47.863,169.080 47.153,168.200 46.614 C 167.320 46.075,165.880 45.264,165.000 44.811 C 164.120 44.359,162.680 43.550,161.800 43.014 C 160.920 42.477,159.750 41.806,159.200 41.521 C 158.650 41.236,156.948 40.238,155.418 39.302 C 153.889 38.366,152.463 37.600,152.250 37.600 C 152.037 37.600,151.546 37.313,151.159 36.963 C 150.450 36.321,149.147 35.548,146.200 34.019 C 145.320 33.562,143.880 32.753,143.000 32.222 C 142.120 31.690,140.860 31.000,140.200 30.689 C 139.540 30.378,138.753 29.826,138.451 29.462 C 138.149 29.098,137.667 28.800,137.380 28.800 C 136.801 28.800,131.619 26.175,131.020 25.578 C 130.811 25.370,130.299 25.200,129.883 25.200 C 129.467 25.200,128.669 24.840,128.109 24.400 C 127.550 23.960,126.801 23.594,126.446 23.587 C 126.091 23.581,124.900 23.132,123.800 22.591 C 122.700 22.050,121.525 21.606,121.189 21.604 C 120.853 21.602,120.164 21.310,119.659 20.956 C 119.153 20.602,117.718 20.080,116.470 19.796 C 115.221 19.512,113.480 18.999,112.600 18.657 C 111.720 18.315,110.460 18.026,109.800 18.015 C 109.140 18.004,108.060 17.705,107.400 17.350 C 105.298 16.219,90.927 15.680,81.600 16.383 M114.000 93.214 C 110.479 94.041,107.106 95.159,106.483 95.706 C 106.107 96.036,105.440 96.415,105.000 96.549 C 102.280 97.379,97.031 104.339,96.063 108.400 C 95.331 111.471,94.848 384.800,95.575 384.800 C 95.783 384.800,96.049 384.644,96.167 384.454 C 96.284 384.264,97.017 384.005,97.794 383.878 C 98.572 383.752,99.729 383.278,100.366 382.825 C 101.002 382.371,101.766 381.994,102.062 381.987 C 102.358 381.981,103.500 381.532,104.600 380.991 C 105.700 380.450,106.842 380.006,107.137 380.004 C 107.432 380.002,108.131 379.640,108.691 379.200 C 109.250 378.760,110.089 378.396,110.554 378.391 C 111.019 378.386,111.850 378.030,112.400 377.600 C 112.950 377.170,113.670 376.812,114.000 376.805 C 114.330 376.798,115.500 376.350,116.600 375.809 C 117.700 375.268,118.891 374.819,119.246 374.813 C 119.601 374.806,120.350 374.440,120.909 374.000 C 121.469 373.560,122.222 373.200,122.584 373.200 C 122.946 373.200,123.907 372.851,124.721 372.425 C 126.839 371.315,130.630 369.600,130.965 369.600 C 131.238 369.600,135.160 367.891,136.400 367.232 C 136.927 366.951,137.024 360.216,137.200 311.556 C 137.310 281.110,137.555 255.883,137.744 255.497 C 138.293 254.375,137.324 254.396,193.234 254.296 L 246.669 254.200 248.429 253.000 C 250.375 251.673,251.650 250.322,253.293 247.847 C 253.894 246.941,254.579 245.971,254.816 245.691 C 255.054 245.412,255.442 244.602,255.680 243.891 C 255.919 243.181,256.356 242.318,256.652 241.974 C 256.948 241.629,257.293 240.729,257.418 239.974 C 257.543 239.218,257.977 237.880,258.384 237.000 C 258.790 236.120,259.315 234.230,259.551 232.800 C 259.786 231.370,260.255 229.210,260.593 228.000 C 261.136 226.058,261.196 218.907,261.104 167.000 L 261.000 108.200 260.100 106.606 C 259.605 105.729,259.200 104.766,259.200 104.464 C 259.200 101.983,249.955 94.400,246.931 94.400 C 246.405 94.400,245.305 94.085,244.487 93.700 C 242.865 92.937,117.174 92.468,114.000 93.214 M218.816 136.242 C 219.464 137.947,219.139 210.221,218.480 210.880 C 218.062 211.298,210.268 211.421,178.708 211.506 L 139.456 211.612 138.322 210.525 L 137.188 209.439 137.294 172.981 C 137.382 142.784,137.494 136.409,137.949 135.861 C 138.453 135.254,141.778 135.200,178.459 135.200 L 218.420 135.200 218.816 136.242 " stroke="none" fill="#ec533b" fill-rule="evenodd"></path><path id="path1" d="M282.393 113.500 C 282.389 113.885,282.386 138.230,282.387 167.600 C 282.388 200.784,282.241 221.606,282.000 222.600 C 281.786 223.480,281.335 226.394,280.997 229.075 C 280.659 231.756,280.142 234.636,279.848 235.475 C 279.554 236.314,279.181 237.898,279.018 238.995 C 278.856 240.092,278.485 241.448,278.196 242.009 C 277.906 242.569,277.541 243.741,277.386 244.614 C 277.230 245.486,276.765 246.761,276.351 247.447 C 275.938 248.133,275.597 248.943,275.593 249.247 C 275.588 249.551,274.986 250.970,274.255 252.400 C 269.428 261.834,264.117 267.695,257.190 271.235 C 255.765 271.963,254.371 272.728,254.092 272.935 C 253.813 273.142,252.373 273.735,250.892 274.254 L 248.200 275.197 203.580 275.198 C 169.411 275.200,158.848 275.312,158.480 275.680 C 157.630 276.530,157.801 358.749,158.654 359.076 C 159.014 359.214,159.599 359.123,159.954 358.873 C 160.309 358.624,162.104 357.560,163.941 356.510 C 165.779 355.459,167.939 354.206,168.741 353.725 C 169.544 353.244,170.778 352.524,171.486 352.125 C 173.773 350.835,182.402 345.826,183.923 344.906 C 184.735 344.414,186.120 343.646,187.000 343.198 C 187.880 342.751,190.040 341.493,191.800 340.404 C 193.560 339.314,195.361 338.259,195.803 338.058 C 196.245 337.858,197.595 337.102,198.803 336.379 C 200.011 335.657,201.630 334.723,202.400 334.305 C 203.170 333.887,204.455 333.152,205.256 332.672 C 206.057 332.192,208.895 330.540,211.563 329.000 C 214.231 327.460,217.086 325.796,217.907 325.303 C 218.728 324.809,219.940 324.128,220.600 323.788 C 221.260 323.448,222.610 322.644,223.600 322.000 C 224.590 321.356,225.940 320.557,226.600 320.222 C 227.260 319.888,228.700 319.076,229.800 318.418 C 230.900 317.760,232.340 316.935,233.000 316.583 C 233.660 316.232,234.859 315.552,235.664 315.073 C 240.907 311.948,243.383 310.511,245.400 309.421 C 246.060 309.064,247.259 308.373,248.065 307.886 C 248.871 307.399,252.365 305.380,255.829 303.400 C 259.293 301.420,262.773 299.404,263.563 298.921 C 264.354 298.437,266.440 297.218,268.200 296.211 C 269.960 295.204,271.670 294.215,272.000 294.012 C 273.161 293.299,278.611 290.197,279.600 289.687 C 280.150 289.403,281.261 288.772,282.068 288.285 C 284.915 286.569,290.217 283.477,291.600 282.727 C 292.370 282.309,293.667 281.570,294.482 281.084 C 295.297 280.598,297.187 279.499,298.682 278.642 C 301.040 277.290,309.060 272.614,310.800 271.577 C 311.130 271.380,312.904 270.360,314.741 269.310 C 316.579 268.259,318.739 267.002,319.541 266.515 C 320.344 266.028,321.450 265.397,322.000 265.113 C 322.550 264.829,323.540 264.253,324.200 263.832 C 328.409 261.150,331.141 259.386,332.084 258.741 C 332.680 258.334,333.277 258.000,333.410 258.000 C 333.995 258.000,341.289 252.176,346.157 247.823 C 349.556 244.784,355.931 237.880,357.443 235.600 C 357.953 234.830,358.882 233.480,359.506 232.600 C 360.928 230.597,364.245 224.718,364.620 223.539 C 364.774 223.053,365.237 222.103,365.648 221.428 C 366.060 220.752,366.398 219.878,366.399 219.484 C 366.399 219.090,366.738 218.100,367.152 217.284 C 367.566 216.468,368.028 214.990,368.180 214.000 C 368.331 213.010,368.758 211.300,369.128 210.200 C 370.109 207.282,370.099 192.315,369.115 189.400 C 368.743 188.300,368.325 186.680,368.185 185.800 C 367.920 184.136,366.840 180.951,365.607 178.200 C 364.426 175.564,362.330 171.435,361.898 170.895 C 361.676 170.618,361.203 169.867,360.847 169.228 C 356.700 161.775,345.259 149.916,336.400 143.887 C 331.262 140.390,327.384 137.950,321.961 134.803 C 314.238 130.321,311.238 128.599,309.800 127.821 C 309.140 127.464,307.945 126.773,307.144 126.286 C 305.763 125.446,297.441 120.629,294.686 119.075 C 293.978 118.676,292.680 117.913,291.800 117.378 C 290.920 116.843,289.629 116.138,288.932 115.811 C 288.234 115.484,286.858 114.672,285.874 114.008 C 283.847 112.640,282.404 112.429,282.393 113.500 " stroke="none" fill="#338bcb" fill-rule="evenodd"></path><path id="path2" d="M0.000 200.000 L 0.000 400.000 200.000 400.000 L 400.000 400.000 400.000 200.000 L 400.000 0.000 200.000 0.000 L 0.000 0.000 0.000 200.000 M97.600 14.379 C 103.248 15.147,106.303 15.662,108.600 16.234 C 114.489 17.700,115.516 17.979,117.400 18.624 C 118.500 19.000,120.120 19.623,121.000 20.008 C 123.675 21.178,126.930 22.449,128.257 22.842 C 128.948 23.046,129.735 23.481,130.006 23.807 C 130.276 24.133,130.812 24.400,131.195 24.400 C 131.578 24.400,132.321 24.735,132.846 25.145 C 133.371 25.555,134.250 26.027,134.800 26.194 C 135.350 26.361,135.980 26.639,136.200 26.810 C 136.590 27.115,137.223 27.468,143.000 30.598 C 144.540 31.432,146.070 32.324,146.400 32.580 C 146.730 32.836,147.450 33.269,148.000 33.542 C 148.550 33.815,149.720 34.479,150.600 35.018 C 151.480 35.557,152.920 36.373,153.800 36.833 C 154.680 37.292,156.120 38.095,157.000 38.619 C 161.098 41.056,161.798 41.468,163.540 42.469 C 164.563 43.057,165.940 43.828,166.600 44.183 C 167.260 44.538,168.520 45.271,169.400 45.811 C 170.280 46.352,171.540 47.070,172.200 47.407 C 172.860 47.744,174.231 48.510,175.247 49.110 C 179.385 51.552,183.363 53.851,184.934 54.710 C 185.850 55.210,187.320 56.059,188.200 56.596 C 189.080 57.133,190.340 57.862,191.000 58.217 C 192.692 59.126,195.059 60.475,202.205 64.600 C 213.247 70.974,213.640 71.238,213.509 72.200 C 213.401 72.994,213.018 73.002,161.400 73.207 L 109.400 73.413 107.110 74.307 C 105.850 74.798,104.550 75.200,104.221 75.200 C 102.847 75.200,95.730 78.749,92.400 81.094 C 86.707 85.104,80.629 92.577,78.553 98.121 C 77.041 102.157,76.038 105.889,75.575 109.200 C 75.406 110.410,75.252 172.263,75.234 246.651 C 75.204 364.670,75.126 381.964,74.616 382.386 C 73.947 382.942,71.845 382.607,70.611 381.749 C 70.177 381.447,69.547 381.197,69.211 381.194 C 68.329 381.186,61.868 377.865,59.305 376.102 C 55.717 373.636,55.465 373.447,53.816 371.995 C 50.963 369.482,46.895 365.193,45.602 363.335 C 45.271 362.859,44.415 361.635,43.700 360.615 C 42.985 359.594,42.400 358.611,42.400 358.429 C 42.400 358.247,42.138 357.880,41.817 357.614 C 40.226 356.294,34.665 343.337,33.399 338.000 C 33.112 336.790,32.590 335.012,32.239 334.050 C 31.887 333.087,31.600 331.780,31.600 331.145 C 31.600 330.511,31.195 328.328,30.700 326.296 L 29.800 322.600 29.800 200.000 C 29.800 108.038,29.917 76.900,30.266 75.400 C 30.523 74.300,30.938 72.230,31.189 70.800 C 32.109 65.562,33.698 59.470,34.593 57.755 C 34.924 57.120,35.196 56.307,35.198 55.948 C 35.203 54.559,40.150 44.260,42.570 40.600 C 47.591 33.008,54.037 26.604,60.761 22.528 C 64.433 20.302,69.905 17.597,70.733 17.599 C 71.026 17.600,72.556 17.174,74.133 16.654 C 76.762 15.787,80.202 15.094,85.400 14.385 C 88.369 13.980,94.641 13.977,97.600 14.379 M246.200 92.642 C 247.080 92.975,248.402 93.431,249.138 93.654 C 253.086 94.849,257.847 99.229,260.520 104.125 C 262.847 108.385,262.834 108.005,262.674 169.000 C 262.519 227.841,262.471 229.402,260.644 234.200 C 260.309 235.080,260.026 236.160,260.015 236.600 C 260.004 237.040,259.746 237.878,259.441 238.461 C 259.137 239.045,258.660 240.215,258.382 241.061 C 256.372 247.185,251.559 253.165,247.049 255.144 L 245.098 256.000 192.578 256.000 C 145.365 256.000,139.994 256.064,139.429 256.629 C 138.863 257.194,138.800 262.782,138.800 312.167 C 138.800 372.884,139.015 367.830,136.400 368.600 C 135.850 368.762,135.130 369.122,134.800 369.400 C 134.470 369.678,133.750 370.028,133.200 370.177 C 132.650 370.326,131.300 370.868,130.200 371.381 C 125.298 373.664,124.526 374.000,124.174 373.999 C 123.968 373.998,122.990 374.385,122.000 374.857 C 118.278 376.634,112.488 379.200,112.200 379.200 C 111.977 379.200,109.613 380.223,106.200 381.795 C 105.540 382.099,103.650 382.916,102.000 383.610 C 100.350 384.304,98.245 385.227,97.321 385.661 C 96.003 386.281,95.466 386.356,94.821 386.011 L 94.000 385.572 94.018 247.686 C 94.033 125.622,94.105 109.616,94.640 108.200 C 94.973 107.320,95.390 106.150,95.567 105.600 C 96.706 102.063,104.592 94.010,106.928 93.998 C 107.187 93.996,107.940 93.703,108.600 93.346 C 109.260 92.989,110.340 92.558,111.000 92.389 C 113.562 91.733,244.448 91.977,246.200 92.642 M284.204 112.806 C 284.342 113.029,285.027 113.486,285.727 113.820 C 286.427 114.155,287.652 114.827,288.448 115.314 C 289.244 115.801,291.471 117.100,293.397 118.200 C 295.322 119.300,297.731 120.694,298.749 121.297 C 299.767 121.900,300.960 122.586,301.400 122.821 C 303.088 123.723,310.420 127.986,313.545 129.883 C 314.345 130.369,315.720 131.136,316.600 131.589 C 317.480 132.041,318.864 132.814,319.676 133.306 C 320.488 133.798,322.468 134.975,324.076 135.923 C 325.684 136.870,327.810 138.165,328.800 138.801 C 331.715 140.673,332.172 140.959,333.586 141.800 C 339.220 145.149,353.659 158.403,356.899 163.200 C 357.717 164.410,358.923 166.163,359.581 167.096 C 360.238 168.029,361.058 169.289,361.404 169.896 C 361.749 170.503,362.466 171.720,362.997 172.600 C 363.528 173.480,364.082 174.470,364.229 174.800 C 364.376 175.130,364.824 176.120,365.225 177.000 C 368.811 184.874,370.132 191.800,369.917 201.600 C 369.766 208.524,368.867 213.719,367.167 217.511 C 366.745 218.452,366.400 219.430,366.400 219.684 C 366.400 219.939,366.049 220.879,365.621 221.774 C 365.192 222.668,364.641 223.850,364.397 224.400 C 360.301 233.605,350.795 244.789,339.576 253.600 C 338.876 254.150,338.100 254.792,337.851 255.026 C 337.360 255.491,331.850 259.218,329.600 260.607 C 328.830 261.083,327.660 261.814,327.000 262.231 C 325.233 263.349,324.795 263.609,320.979 265.800 C 319.063 266.900,316.896 268.160,316.164 268.600 C 312.401 270.860,306.750 274.000,306.445 274.000 C 306.254 274.000,305.865 274.280,305.581 274.623 C 305.296 274.966,304.509 275.512,303.832 275.837 C 303.154 276.162,301.880 276.866,301.000 277.401 C 300.120 277.935,298.828 278.694,298.128 279.087 C 295.480 280.572,289.839 283.835,288.448 284.686 C 287.652 285.173,286.460 285.864,285.800 286.221 C 285.140 286.578,283.775 287.349,282.767 287.935 C 281.758 288.521,280.228 289.409,279.367 289.909 C 278.505 290.409,276.606 291.489,275.148 292.309 C 273.689 293.129,272.249 294.006,271.948 294.258 C 271.646 294.510,270.770 295.007,270.000 295.361 C 269.230 295.716,267.880 296.442,267.000 296.976 C 266.120 297.510,264.770 298.326,264.000 298.788 C 263.230 299.251,261.880 300.065,261.000 300.598 C 260.120 301.130,258.680 301.941,257.800 302.400 C 256.920 302.859,255.480 303.670,254.600 304.204 C 253.720 304.737,252.433 305.494,251.740 305.887 C 251.046 306.279,248.919 307.500,247.012 308.600 C 245.105 309.700,242.972 310.921,242.272 311.313 C 241.572 311.706,240.331 312.426,239.514 312.913 C 238.696 313.401,235.222 315.420,231.794 317.400 C 228.366 319.380,224.958 321.360,224.222 321.800 C 223.485 322.240,221.310 323.500,219.389 324.600 C 217.468 325.700,215.244 326.999,214.448 327.486 C 213.652 327.973,212.460 328.659,211.800 329.010 C 211.140 329.361,209.773 330.133,208.763 330.724 C 207.752 331.316,205.527 332.610,203.817 333.600 C 202.108 334.590,200.055 335.799,199.255 336.286 C 198.455 336.773,197.260 337.451,196.600 337.792 C 195.940 338.133,194.500 338.944,193.400 339.595 C 192.300 340.246,190.846 341.043,190.168 341.366 C 189.491 341.689,188.704 342.234,188.419 342.577 C 188.135 342.920,187.730 343.200,187.521 343.200 C 187.192 343.200,185.055 344.396,180.200 347.298 C 179.540 347.692,178.460 348.294,177.800 348.635 C 177.140 348.976,175.880 349.686,175.000 350.213 C 171.538 352.284,166.849 354.998,165.400 355.768 C 164.740 356.119,163.480 356.846,162.600 357.384 C 159.840 359.070,159.269 359.312,158.626 359.065 C 157.798 358.748,157.655 276.505,158.480 275.680 C 158.847 275.313,169.326 275.199,203.180 275.195 L 247.400 275.189 250.231 274.286 C 251.788 273.789,253.537 273.071,254.117 272.691 C 254.697 272.311,255.390 272.000,255.657 272.000 C 256.219 272.000,261.003 268.864,263.541 266.830 C 267.652 263.538,273.878 254.307,275.608 248.939 C 275.881 248.092,276.275 247.185,276.483 246.922 C 276.692 246.658,277.110 245.488,277.413 244.322 C 277.716 243.155,278.266 241.030,278.635 239.600 C 279.004 238.170,279.565 236.118,279.881 235.041 C 281.667 228.947,281.745 226.351,281.876 168.400 C 281.944 138.150,282.085 113.175,282.188 112.900 C 282.412 112.300,283.850 112.233,284.204 112.806 M139.214 137.574 C 138.524 138.863,138.650 208.578,139.343 209.153 C 139.740 209.482,150.391 209.576,178.843 209.502 L 217.800 209.400 217.902 173.425 C 217.983 144.909,217.900 137.384,217.502 137.131 C 216.226 136.321,139.653 136.754,139.214 137.574 " stroke="none" fill="#fbfbfb" fill-rule="evenodd"></path><path id="path3" d="M85.400 14.385 C 80.202 15.094,76.762 15.787,74.133 16.654 C 72.556 17.174,71.026 17.600,70.733 17.599 C 69.905 17.597,64.433 20.302,60.761 22.528 C 54.037 26.604,47.591 33.008,42.570 40.600 C 40.150 44.260,35.203 54.559,35.198 55.948 C 35.196 56.307,34.924 57.120,34.593 57.755 C 33.698 59.470,32.109 65.562,31.189 70.800 C 30.938 72.230,30.523 74.300,30.266 75.400 C 29.917 76.900,29.800 108.038,29.800 200.000 L 29.800 322.600 30.700 326.296 C 31.195 328.328,31.600 330.511,31.600 331.145 C 31.600 331.780,31.887 333.087,32.239 334.050 C 32.590 335.012,33.112 336.790,33.399 338.000 C 34.665 343.337,40.226 356.294,41.817 357.614 C 42.138 357.880,42.400 358.247,42.400 358.429 C 42.400 358.611,42.985 359.594,43.700 360.615 C 44.415 361.635,45.271 362.859,45.602 363.335 C 46.895 365.193,50.963 369.482,53.816 371.995 C 55.465 373.447,55.717 373.636,59.305 376.102 C 61.868 377.865,68.329 381.186,69.211 381.194 C 69.547 381.197,70.177 381.447,70.611 381.749 C 71.845 382.607,73.947 382.942,74.616 382.386 C 75.126 381.964,75.204 364.670,75.234 246.651 C 75.252 172.263,75.406 110.410,75.575 109.200 C 77.730 93.798,86.329 82.890,101.711 76.050 C 102.762 75.582,103.891 75.200,104.221 75.200 C 104.550 75.200,105.850 74.798,107.110 74.307 L 109.400 73.413 161.400 73.207 C 221.741 72.967,216.938 73.385,209.752 69.000 C 207.235 67.464,193.370 59.491,191.000 58.217 C 190.340 57.862,189.080 57.133,188.200 56.596 C 187.320 56.059,185.850 55.210,184.934 54.710 C 183.363 53.851,179.385 51.552,175.247 49.110 C 174.231 48.510,172.860 47.744,172.200 47.407 C 171.540 47.070,170.280 46.352,169.400 45.811 C 168.520 45.271,167.260 44.538,166.600 44.183 C 165.940 43.828,164.563 43.057,163.540 42.469 C 161.798 41.468,161.098 41.056,157.000 38.619 C 156.120 38.095,154.680 37.292,153.800 36.833 C 152.920 36.373,151.480 35.557,150.600 35.018 C 149.720 34.479,148.550 33.815,148.000 33.542 C 147.450 33.269,146.730 32.836,146.400 32.580 C 146.070 32.324,144.540 31.432,143.000 30.598 C 137.223 27.468,136.590 27.115,136.200 26.810 C 135.980 26.639,135.350 26.361,134.800 26.194 C 134.250 26.027,133.371 25.555,132.846 25.145 C 132.321 24.735,131.578 24.400,131.195 24.400 C 130.812 24.400,130.276 24.133,130.006 23.807 C 129.735 23.481,128.948 23.046,128.257 22.842 C 126.930 22.449,123.675 21.178,121.000 20.008 C 120.120 19.623,118.500 19.000,117.400 18.624 C 115.516 17.979,114.489 17.700,108.600 16.234 C 106.303 15.662,103.248 15.147,97.600 14.379 C 94.641 13.977,88.369 13.980,85.400 14.385 M101.600 15.725 C 104.350 16.038,107.680 16.606,109.000 16.987 C 116.108 19.038,118.359 19.751,119.911 20.440 C 120.852 20.858,121.842 21.202,122.111 21.204 C 122.380 21.206,123.500 21.650,124.600 22.191 C 125.700 22.732,126.842 23.181,127.138 23.187 C 127.434 23.194,128.165 23.548,128.763 23.973 C 129.360 24.399,130.325 24.866,130.908 25.013 C 131.491 25.159,132.177 25.531,132.433 25.839 C 132.689 26.148,133.101 26.401,133.349 26.402 C 133.597 26.404,134.250 26.647,134.800 26.942 C 135.350 27.238,137.240 28.250,139.000 29.193 C 140.760 30.135,142.470 31.118,142.800 31.376 C 143.130 31.634,143.850 32.061,144.400 32.324 C 144.950 32.587,146.300 33.341,147.400 33.998 C 148.500 34.656,149.760 35.388,150.200 35.625 C 150.640 35.862,151.834 36.538,152.854 37.128 C 153.874 37.718,156.902 39.460,159.583 41.000 C 162.263 42.540,165.119 44.193,165.928 44.673 C 166.738 45.152,167.940 45.821,168.600 46.158 C 169.260 46.495,170.610 47.258,171.600 47.854 C 172.590 48.450,174.054 49.311,174.853 49.768 C 181.055 53.318,186.291 56.341,187.528 57.086 C 188.338 57.573,189.540 58.262,190.200 58.617 C 191.848 59.503,194.127 60.801,201.404 65.000 C 204.836 66.980,208.135 68.870,208.736 69.200 C 210.330 70.076,212.400 71.700,212.400 72.075 C 212.400 72.254,191.025 72.402,164.900 72.403 C 115.754 72.407,110.255 72.558,105.400 74.037 C 93.755 77.585,83.937 85.494,79.236 95.116 C 78.515 96.592,77.729 98.160,77.491 98.600 C 77.252 99.040,76.825 100.300,76.542 101.400 C 76.259 102.500,75.751 104.384,75.414 105.587 C 74.868 107.533,74.800 122.809,74.800 244.254 C 74.800 319.319,74.691 381.019,74.557 381.367 C 74.292 382.059,72.593 382.235,72.207 381.611 C 72.074 381.397,71.209 381.026,70.283 380.787 C 61.290 378.463,48.977 368.186,42.531 357.624 C 41.153 355.366,37.200 347.392,37.200 346.871 C 37.200 346.610,36.840 345.725,36.400 344.904 C 35.960 344.084,35.600 343.083,35.600 342.680 C 35.600 342.278,35.258 341.105,34.840 340.074 C 34.160 338.396,33.787 337.056,32.427 331.400 C 32.216 330.520,31.628 327.100,31.121 323.800 L 30.200 317.800 30.200 199.600 L 30.200 81.400 31.115 75.600 C 31.619 72.410,32.180 69.170,32.362 68.400 C 33.117 65.203,33.730 62.897,34.277 61.200 C 34.596 60.210,35.094 58.468,35.385 57.329 C 35.676 56.189,36.204 54.844,36.557 54.340 C 36.911 53.835,37.200 53.179,37.200 52.882 C 37.200 52.300,41.097 44.302,42.502 42.000 C 45.698 36.762,50.331 31.449,55.200 27.438 C 58.741 24.520,59.960 23.697,63.800 21.632 C 64.460 21.277,65.445 20.675,65.989 20.293 C 66.533 19.912,67.226 19.600,67.529 19.600 C 67.831 19.600,68.646 19.334,69.340 19.009 C 76.748 15.538,89.004 14.290,101.600 15.725 M111.000 92.389 C 110.340 92.558,109.260 92.989,108.600 93.346 C 107.940 93.703,107.187 93.996,106.928 93.998 C 104.592 94.010,96.706 102.063,95.567 105.600 C 95.390 106.150,94.973 107.320,94.640 108.200 C 94.105 109.616,94.033 125.622,94.018 247.686 L 94.000 385.572 94.821 386.011 C 95.466 386.356,96.003 386.281,97.321 385.661 C 98.245 385.227,100.350 384.304,102.000 383.610 C 103.650 382.916,105.540 382.099,106.200 381.795 C 109.613 380.223,111.977 379.200,112.200 379.200 C 112.488 379.200,118.278 376.634,122.000 374.857 C 122.990 374.385,123.968 373.998,124.174 373.999 C 124.526 374.000,125.298 373.664,130.200 371.381 C 131.300 370.868,132.650 370.326,133.200 370.177 C 133.750 370.028,134.470 369.678,134.800 369.400 C 135.130 369.122,135.850 368.762,136.400 368.600 C 139.015 367.830,138.800 372.884,138.800 312.167 C 138.800 262.782,138.863 257.194,139.429 256.629 C 139.994 256.064,145.365 256.000,192.578 256.000 L 245.098 256.000 247.049 255.144 C 251.559 253.165,256.372 247.185,258.382 241.061 C 258.660 240.215,259.137 239.045,259.441 238.461 C 259.746 237.878,260.004 237.040,260.015 236.600 C 260.026 236.160,260.309 235.080,260.644 234.200 C 262.471 229.402,262.519 227.841,262.674 169.000 C 262.834 108.005,262.847 108.385,260.520 104.125 C 257.847 99.229,253.086 94.849,249.138 93.654 C 248.402 93.431,247.080 92.975,246.200 92.642 C 244.448 91.977,113.562 91.733,111.000 92.389 M245.749 93.300 C 246.601 93.685,247.591 94.001,247.949 94.002 C 250.621 94.013,256.569 98.929,259.268 103.360 C 261.995 107.835,261.970 107.250,261.982 167.600 C 261.993 221.338,261.860 226.925,260.444 231.961 C 260.036 233.413,259.513 235.320,259.283 236.200 C 258.350 239.757,257.079 242.735,254.445 247.527 C 254.140 248.083,252.674 249.753,251.187 251.241 C 246.862 255.566,252.351 255.200,191.750 255.200 L 139.245 255.200 138.623 256.089 C 138.066 256.883,138.000 262.833,138.000 311.840 C 138.000 359.513,137.923 366.766,137.415 367.188 C 136.576 367.884,132.297 369.973,131.679 369.987 C 131.393 369.994,130.493 370.340,129.679 370.756 C 126.697 372.280,123.708 373.600,123.239 373.600 C 122.975 373.600,122.093 373.944,121.279 374.365 C 118.559 375.772,115.393 377.200,114.994 377.199 C 114.777 377.198,113.790 377.585,112.800 378.057 C 109.832 379.474,107.938 380.310,105.200 381.411 C 103.770 381.987,102.090 382.715,101.466 383.029 C 98.970 384.289,95.184 385.638,94.804 385.402 C 94.533 385.235,94.402 340.085,94.405 248.676 L 94.410 112.200 95.363 108.800 C 96.874 103.406,100.748 98.064,104.545 96.137 C 105.235 95.787,106.031 95.316,106.313 95.090 C 106.878 94.639,111.621 92.985,113.200 92.689 C 116.663 92.040,244.263 92.628,245.749 93.300 M282.138 113.017 C 282.008 113.357,282.013 113.747,282.151 113.884 C 282.288 114.021,282.400 113.846,282.400 113.494 C 282.400 113.143,282.805 112.778,283.300 112.682 L 284.200 112.509 283.287 112.454 C 282.786 112.425,282.268 112.678,282.138 113.017 M282.194 168.600 C 282.194 197.860,282.242 209.771,282.300 195.069 C 282.358 180.367,282.358 156.427,282.300 141.869 C 282.242 127.311,282.194 139.340,282.194 168.600 M139.360 135.903 C 138.035 136.797,138.000 137.762,138.000 173.285 C 138.000 204.620,138.071 208.723,138.623 209.511 L 139.245 210.400 178.633 210.400 L 218.020 210.400 218.416 209.357 C 219.064 207.653,218.739 136.979,218.080 136.320 C 217.500 135.739,140.208 135.330,139.360 135.903 M217.502 137.131 C 217.900 137.384,217.983 144.909,217.902 173.425 L 217.800 209.400 178.843 209.502 C 150.391 209.576,139.740 209.482,139.343 209.153 C 138.650 208.578,138.524 138.863,139.214 137.574 C 139.653 136.754,216.226 136.321,217.502 137.131 M344.778 249.100 L 343.400 250.600 344.900 249.222 C 346.296 247.938,346.584 247.600,346.278 247.600 C 346.212 247.600,345.537 248.275,344.778 249.100 " stroke="none" fill="#f4aca2" fill-rule="evenodd"></path><path id="path4" d="M83.200 15.571 C 78.055 16.247,72.063 17.733,69.340 19.009 C 68.646 19.334,67.831 19.600,67.529 19.600 C 67.226 19.600,66.533 19.912,65.989 20.293 C 65.445 20.675,64.460 21.277,63.800 21.632 C 53.171 27.348,45.552 35.549,39.424 47.871 C 38.201 50.330,37.200 52.585,37.200 52.882 C 37.200 53.179,36.911 53.835,36.557 54.340 C 36.204 54.844,35.676 56.189,35.385 57.329 C 35.094 58.468,34.596 60.210,34.277 61.200 C 33.730 62.897,33.117 65.203,32.362 68.400 C 32.180 69.170,31.619 72.410,31.115 75.600 L 30.200 81.400 30.200 199.600 L 30.200 317.800 31.121 323.800 C 31.628 327.100,32.216 330.520,32.427 331.400 C 33.787 337.056,34.160 338.396,34.840 340.074 C 35.258 341.105,35.600 342.278,35.600 342.680 C 35.600 343.083,35.960 344.084,36.400 344.904 C 36.840 345.725,37.200 346.610,37.200 346.871 C 37.200 347.392,41.153 355.366,42.531 357.624 C 48.977 368.186,61.290 378.463,70.283 380.787 C 71.209 381.026,72.074 381.397,72.207 381.611 C 72.593 382.235,74.292 382.059,74.557 381.367 C 74.691 381.019,74.800 319.319,74.800 244.254 C 74.800 122.809,74.868 107.533,75.414 105.587 C 75.751 104.384,76.259 102.500,76.542 101.400 C 76.825 100.300,77.252 99.040,77.491 98.600 C 77.729 98.160,78.515 96.592,79.236 95.116 C 83.937 85.494,93.755 77.585,105.400 74.037 C 110.255 72.558,115.754 72.407,164.900 72.403 C 191.025 72.402,212.400 72.254,212.400 72.075 C 212.400 71.700,210.330 70.076,208.736 69.200 C 208.135 68.870,204.836 66.980,201.404 65.000 C 194.127 60.801,191.848 59.503,190.200 58.617 C 189.540 58.262,188.338 57.573,187.528 57.086 C 186.291 56.341,181.055 53.318,174.853 49.768 C 174.054 49.311,172.590 48.450,171.600 47.854 C 170.610 47.258,169.260 46.495,168.600 46.158 C 167.940 45.821,166.738 45.152,165.928 44.673 C 165.119 44.193,162.263 42.540,159.583 41.000 C 156.902 39.460,153.874 37.718,152.854 37.128 C 151.834 36.538,150.640 35.862,150.200 35.625 C 149.760 35.388,148.500 34.656,147.400 33.998 C 146.300 33.341,144.950 32.587,144.400 32.324 C 143.850 32.061,143.130 31.634,142.800 31.376 C 142.470 31.118,140.760 30.135,139.000 29.193 C 137.240 28.250,135.350 27.238,134.800 26.942 C 134.250 26.647,133.597 26.404,133.349 26.402 C 133.101 26.401,132.689 26.148,132.433 25.839 C 132.177 25.531,131.491 25.159,130.908 25.013 C 130.325 24.866,129.360 24.399,128.763 23.973 C 128.165 23.548,127.434 23.194,127.138 23.187 C 126.842 23.181,125.700 22.732,124.600 22.191 C 123.500 21.650,122.380 21.206,122.111 21.204 C 121.842 21.202,120.852 20.858,119.911 20.440 C 118.359 19.751,116.108 19.038,109.000 16.987 C 102.915 15.230,90.836 14.567,83.200 15.571 M101.600 16.378 C 104.511 16.584,106.641 16.941,107.400 17.350 C 108.060 17.705,109.140 18.004,109.800 18.015 C 110.460 18.026,111.720 18.315,112.600 18.657 C 113.480 18.999,115.221 19.512,116.470 19.796 C 117.718 20.080,119.153 20.602,119.659 20.956 C 120.164 21.310,120.853 21.602,121.189 21.604 C 121.525 21.606,122.700 22.050,123.800 22.591 C 124.900 23.132,126.091 23.581,126.446 23.587 C 126.801 23.594,127.550 23.960,128.109 24.400 C 128.669 24.840,129.467 25.200,129.883 25.200 C 130.299 25.200,130.811 25.370,131.020 25.578 C 131.619 26.175,136.801 28.800,137.380 28.800 C 137.667 28.800,138.149 29.098,138.451 29.462 C 138.753 29.826,139.540 30.378,140.200 30.689 C 140.860 31.000,142.120 31.690,143.000 32.222 C 143.880 32.753,145.320 33.562,146.200 34.019 C 149.147 35.548,150.450 36.321,151.159 36.963 C 151.546 37.313,152.037 37.600,152.250 37.600 C 152.463 37.600,153.889 38.366,155.418 39.302 C 156.948 40.238,158.650 41.236,159.200 41.521 C 159.750 41.806,160.920 42.477,161.800 43.014 C 162.680 43.550,164.120 44.359,165.000 44.811 C 165.880 45.264,167.320 46.075,168.200 46.614 C 169.080 47.153,170.373 47.863,171.073 48.191 C 171.773 48.519,172.455 48.965,172.589 49.183 C 172.723 49.400,173.591 49.943,174.517 50.390 C 175.442 50.837,176.920 51.639,177.800 52.174 C 178.680 52.708,179.940 53.429,180.600 53.775 C 181.260 54.122,182.520 54.847,183.400 55.386 C 184.280 55.925,185.720 56.741,186.600 57.200 C 187.480 57.659,188.920 58.475,189.800 59.014 C 190.680 59.553,191.973 60.263,192.673 60.591 C 193.373 60.919,194.060 61.373,194.200 61.600 C 194.340 61.827,195.027 62.287,195.727 62.624 C 196.427 62.960,197.900 63.754,199.000 64.387 C 200.100 65.020,201.540 65.828,202.200 66.183 C 202.860 66.538,204.120 67.273,205.000 67.817 C 205.880 68.360,207.275 69.101,208.100 69.463 C 209.043 69.877,209.600 70.392,209.600 70.850 C 209.600 71.549,207.709 71.584,161.700 71.730 C 105.287 71.909,104.779 71.949,96.800 76.838 C 96.470 77.040,95.750 77.423,95.200 77.688 C 93.655 78.433,88.802 82.139,86.800 84.104 C 83.660 87.185,79.600 92.198,79.600 92.994 C 79.600 93.260,79.240 93.893,78.800 94.400 C 78.360 94.907,77.999 95.520,77.998 95.761 C 77.996 96.003,77.702 96.740,77.343 97.400 C 76.985 98.060,76.457 99.500,76.170 100.600 C 75.884 101.700,75.323 103.410,74.925 104.400 C 74.231 106.124,74.195 112.042,74.094 243.773 C 74.035 319.438,73.916 381.418,73.828 381.505 C 73.741 381.592,73.249 381.397,72.735 381.071 C 72.221 380.745,71.170 380.348,70.400 380.189 C 69.630 380.030,68.370 379.577,67.600 379.183 C 66.830 378.789,65.750 378.273,65.200 378.036 C 63.971 377.507,63.146 376.995,57.373 373.173 C 56.284 372.453,53.301 369.860,51.064 367.690 C 48.875 365.566,43.200 357.998,43.200 357.203 C 43.200 357.004,42.750 356.356,42.200 355.762 C 41.650 355.169,41.200 354.372,41.200 353.991 C 41.200 353.610,40.939 353.082,40.620 352.817 C 40.302 352.552,39.829 351.675,39.570 350.868 C 39.311 350.061,38.872 349.130,38.594 348.800 C 38.316 348.470,37.960 347.570,37.801 346.800 C 37.643 346.030,37.173 344.839,36.757 344.153 C 36.341 343.467,35.996 342.477,35.991 341.953 C 35.986 341.429,35.639 340.242,35.218 339.317 C 34.798 338.391,34.339 336.771,34.197 335.717 C 34.056 334.662,33.617 332.990,33.221 332.000 C 32.826 331.010,32.388 328.580,32.249 326.600 C 32.110 324.620,31.733 321.560,31.412 319.800 C 30.535 314.997,30.516 83.030,31.391 79.400 C 31.710 78.080,32.090 75.290,32.236 73.200 C 32.382 71.107,32.822 68.592,33.217 67.600 C 33.610 66.610,34.029 64.984,34.147 63.988 C 34.264 62.991,34.726 61.371,35.172 60.388 C 35.618 59.404,35.988 58.150,35.994 57.600 C 36.000 57.050,36.363 56.060,36.800 55.400 C 37.237 54.740,37.596 53.942,37.597 53.626 C 37.599 53.311,37.946 52.321,38.370 51.426 C 38.793 50.532,39.421 49.170,39.766 48.400 C 40.679 46.359,42.664 42.912,44.339 40.460 C 45.142 39.283,46.106 37.853,46.481 37.283 C 48.530 34.164,55.178 27.817,59.361 24.986 C 62.288 23.005,67.844 20.000,68.579 20.000 C 68.828 20.000,69.744 19.633,70.615 19.185 C 71.487 18.736,73.010 18.261,74.000 18.128 C 74.990 17.996,76.340 17.607,77.000 17.263 C 79.098 16.172,92.099 15.704,101.600 16.378 M113.200 92.689 C 111.621 92.985,106.878 94.639,106.313 95.090 C 106.031 95.316,105.235 95.787,104.545 96.137 C 100.748 98.064,96.874 103.406,95.363 108.800 L 94.410 112.200 94.405 248.676 C 94.402 340.085,94.533 385.235,94.804 385.402 C 95.184 385.638,98.970 384.289,101.466 383.029 C 102.090 382.715,103.770 381.987,105.200 381.411 C 107.938 380.310,109.832 379.474,112.800 378.057 C 113.790 377.585,114.777 377.198,114.994 377.199 C 115.393 377.200,118.559 375.772,121.279 374.365 C 122.093 373.944,122.975 373.600,123.239 373.600 C 123.708 373.600,126.697 372.280,129.679 370.756 C 130.493 370.340,131.393 369.994,131.679 369.987 C 132.297 369.973,136.576 367.884,137.415 367.188 C 137.923 366.766,138.000 359.513,138.000 311.840 C 138.000 262.833,138.066 256.883,138.623 256.089 L 139.245 255.200 191.750 255.200 C 252.351 255.200,246.862 255.566,251.187 251.241 C 252.674 249.753,254.140 248.083,254.445 247.527 C 257.079 242.735,258.350 239.757,259.283 236.200 C 259.513 235.320,260.036 233.413,260.444 231.961 C 261.860 226.925,261.993 221.338,261.982 167.600 C 261.971 112.589,261.870 108.586,260.414 105.600 C 258.198 101.056,255.237 97.706,251.600 95.629 C 249.406 94.377,248.572 94.005,247.949 94.002 C 247.591 94.001,246.601 93.685,245.749 93.300 C 244.263 92.628,116.663 92.040,113.200 92.689 M244.487 93.700 C 245.305 94.085,246.405 94.400,246.931 94.400 C 249.955 94.400,259.200 101.983,259.200 104.464 C 259.200 104.766,259.605 105.729,260.100 106.606 L 261.000 108.200 261.104 167.000 C 261.196 218.907,261.136 226.058,260.593 228.000 C 260.255 229.210,259.786 231.370,259.551 232.800 C 259.315 234.230,258.790 236.120,258.384 237.000 C 257.977 237.880,257.543 239.218,257.418 239.974 C 257.293 240.729,256.948 241.629,256.652 241.974 C 256.356 242.318,255.919 243.181,255.680 243.891 C 255.442 244.602,255.054 245.412,254.816 245.691 C 254.579 245.971,253.894 246.941,253.293 247.847 C 251.650 250.322,250.375 251.673,248.429 253.000 L 246.669 254.200 193.234 254.296 C 137.324 254.396,138.293 254.375,137.744 255.497 C 137.555 255.883,137.310 281.110,137.200 311.556 C 137.024 360.216,136.927 366.951,136.400 367.232 C 135.160 367.891,131.238 369.600,130.965 369.600 C 130.630 369.600,126.839 371.315,124.721 372.425 C 123.907 372.851,122.946 373.200,122.584 373.200 C 122.222 373.200,121.469 373.560,120.909 374.000 C 120.350 374.440,119.601 374.806,119.246 374.813 C 118.891 374.819,117.700 375.268,116.600 375.809 C 115.500 376.350,114.330 376.798,114.000 376.805 C 113.670 376.812,112.950 377.170,112.400 377.600 C 111.850 378.030,111.019 378.386,110.554 378.391 C 110.089 378.396,109.250 378.760,108.691 379.200 C 108.131 379.640,107.432 380.002,107.137 380.004 C 106.842 380.006,105.700 380.450,104.600 380.991 C 103.500 381.532,102.358 381.981,102.062 381.987 C 101.766 381.994,101.002 382.371,100.366 382.825 C 99.729 383.278,98.572 383.752,97.794 383.878 C 97.017 384.005,96.284 384.264,96.167 384.454 C 96.049 384.644,95.783 384.800,95.575 384.800 C 94.848 384.800,95.331 111.471,96.063 108.400 C 97.031 104.339,102.280 97.379,105.000 96.549 C 105.440 96.415,106.107 96.036,106.483 95.706 C 107.106 95.159,110.479 94.041,114.000 93.214 C 117.174 92.468,242.865 92.937,244.487 93.700 M137.949 135.861 C 137.494 136.409,137.382 142.784,137.294 172.981 L 137.188 209.439 138.322 210.525 L 139.456 211.612 178.708 211.506 C 210.268 211.421,218.062 211.298,218.480 210.880 C 219.139 210.221,219.464 137.947,218.816 136.242 L 218.420 135.200 178.459 135.200 C 141.778 135.200,138.453 135.254,137.949 135.861 M218.080 136.320 C 218.739 136.979,219.064 207.653,218.416 209.357 L 218.020 210.400 178.633 210.400 L 139.245 210.400 138.623 209.511 C 138.071 208.723,138.000 204.620,138.000 173.285 C 138.000 137.762,138.035 136.797,139.360 135.903 C 140.208 135.330,217.500 135.739,218.080 136.320 " stroke="none" fill="#f49485" fill-rule="evenodd"></path></g></svg>